<?xml version="1.0" encoding="UTF-8" standalone="no"?>
<svg
   xmlns:dc="http://purl.org/dc/elements/1.1/"
   xmlns:cc="http://creativecommons.org/ns#"
   xmlns:rdf="http://www.w3.org/1999/02/22-rdf-syntax-ns#"
   xmlns:svg="http://www.w3.org/2000/svg"
   xmlns="http://www.w3.org/2000/svg"
   viewBox="0 0 237.33333 192"
   height="192"
   width="237.33333"
   xml:space="preserve"
   id="svg2"
   version="1.1"><metadata
     id="metadata8"><rdf:RDF><cc:Work
         rdf:about=""><dc:format>image/svg+xml</dc:format><dc:type
           rdf:resource="http://purl.org/dc/dcmitype/StillImage" /></cc:Work></rdf:RDF></metadata><defs
     id="defs6" /><g
     transform="matrix(1.3333333,0,0,-1.3333333,0,192)"
     id="g10"><g
       transform="scale(0.1)"
       id="g12"><path
         id="path14"
         style="fill:#000000;fill-opacity:1;fill-rule:evenodd;stroke:none"
         d="m 772.5,971.988 c -0.66,-71.328 -26.02,-132.34 -76.02,-183.008 -25,-24.332 -53.16,-42.808 -84.492,-55.5 l -50.508,51.008 c -21.64,-25.347 -48.671,-43.668 -80.968,-55 C 461.172,723.16 441.48,720 421.48,720 c -83.98,4.648 -141.32,46.172 -171.992,124.488 -21.328,79.34 -2.5,145.352 56.492,198.012 l -72.5,74.49 c -3.64,1.02 -7.308,1.68 -10.98,1.99 -38.359,3.36 -71.68,-6.17 -100,-28.47 C 94.1406,1067.81 77.1484,1037.5 71.4805,999.488 71.1719,993.828 70.8203,988.32 70.5117,983.012 71.1719,924.34 83.6719,867.148 108.012,811.48 132.66,755.82 165.512,706.988 206.48,665 c 85.36,-83.672 187.661,-126.52 307,-128.52 119.68,0.668 222.5,42.5 308.508,125.508 C 906.988,748.32 950,851.84 950.98,972.5 L 772.5,971.988" /><path
         id="path16"
         style="fill:#000000;fill-opacity:1;fill-rule:evenodd;stroke:none"
         d="m 291.988,858.48 c 23.321,-58.992 66.684,-90.32 130,-93.992 15,0 29.852,2.5 44.492,7.5 35.668,12.352 62.192,35.352 79.5,68.992 11.36,23.36 15.86,47.692 13.508,73 l 19.492,28.52 c 5,12.66 1.68,22.5 -10,29.488 l -33,8.012 c -27,38.32 -64.5,58.32 -112.5,60 -15.32,0 -30.16,-2.34 -44.5,-6.99 -36.64,-13.36 -63.16,-36.53 -79.492,-69.53 -16.328,-32.66 -18.828,-67.66 -7.5,-105" /><path
         id="path18"
         style="fill:#9ea1a3;fill-opacity:1;fill-rule:evenodd;stroke:none"
         d="m 958.012,1004.49 c 0.66,71.02 25.968,131.84 75.968,182.5 25,24.65 53.17,43.32 84.5,56.02 l 50.5,-51.53 c 21.68,25.67 48.68,44.03 81.02,55 19.34,6.68 38.98,9.85 58.98,9.5 83.68,-4.65 141.02,-45.98 172,-123.99 21.36,-79.33 2.5,-145.349 -56.49,-198.01 l 72.5,-75 c 3.67,-0.66 7.35,-1.32 11.02,-1.992 38.32,-3.316 71.64,6.332 100,28.992 28.32,22.34 45.31,52.692 50.97,91.008 0.36,5.352 0.51,10.672 0.51,16.024 0.35,0.308 0.51,0.468 0.51,0.468 -0.66,58.67 -13.16,115.66 -37.5,171.01 -24.69,55.67 -57.66,104.49 -99.02,146.49 -85,84.02 -187.31,127.03 -307,129.02 -119.33,-0.66 -221.992,-42.66 -308,-126.02 -85,-85.97 -127.968,-189.33 -128.992,-310 l 178.524,0.51" /><path
         id="path20"
         style="fill:#9ea1a3;fill-opacity:1;fill-rule:evenodd;stroke:none"
         d="m 1438.01,1118.01 c -23.01,59.33 -66.17,90.66 -129.53,93.98 -15,0 -29.81,-2.34 -44.5,-6.99 -35.66,-12.66 -62.14,-35.86 -79.49,-69.49 -11.33,-23.36 -15.82,-47.7 -13.51,-73.01 l -19.5,-28.01 c -5,-13.01 -1.64,-22.85 10,-29.49 l 33.01,-8.52 c 26.99,-38 64.49,-58 112.5,-60 15.35,0 30.16,2.5 44.49,7.5 36.68,13.36 63.17,36.329 79.5,69.03 16.36,32.97 18.67,67.97 7.03,105" /><path
         id="path22"
         style="fill:#000000;fill-opacity:1;fill-rule:nonzero;stroke:none"
         d="M 169.059,70.5117 C 169.059,23.8281 140.859,0.511719 84.5313,0.511719 28.1602,0.511719 0,23.8281 0,70.5117 V 113.012 H 35 V 68.4805 c 0,-12 4.1406,-21.3321 12.5,-27.9688 8.3203,-6.6836 20.6602,-10 37.0313,-10 16.3277,0 28.6677,3.3164 37.0277,10 8.32,6.6367 12.5,15.6992 12.5,27.1875 0,11.5625 -1.25,20.6992 -3.75,27.5 -2.5,6.8708 -7.61,14.1408 -15.309,21.8708 L 27.0313,203.012 C 16.7188,213.32 9.60938,223.359 5.78125,233.16 1.91016,243.051 0,255.512 0,270.512 c 0,22.258 6.91016,39.527 20.7813,51.718 13.8281,12.18 34.7304,18.282 62.6601,18.282 53.7496,0 80.6176,-23.364 80.6176,-70 v -42.5 h -35 v 44.527 c 0,11.949 -3.981,21.293 -11.868,27.973 -7.812,6.636 -19.6129,10 -35.3121,10 -15.6289,0 -27.3476,-3.364 -35.1601,-10 C 38.9102,293.832 35,284.648 35,273.012 c 0,-11.68 1.1289,-20.864 3.4414,-27.5 2.3789,-6.68 7.5781,-13.672 15.6172,-20.942 l 89.3824,-86.09 c 9.68,-10.628 16.329,-20.902 20,-30.781 3.75,-9.8084 5.618,-22.1873 5.618,-37.1873 z M 406.52,8.01172 H 259.02 V 333.012 h 142.5 v -30 h -107.5 v -115 h 87.5 v -30 h -87.5 V 38.0117 h 112.5 z" /><path
         id="path24"
         style="fill:#000000;fill-opacity:1;fill-rule:nonzero;stroke:none"
         d="m 611.68,333.012 v -30 h -65 V 8.01172 h -35 V 303.012 h -65 v 30 z" /><path
         id="path26"
         style="fill:#000000;fill-opacity:1;fill-rule:nonzero;stroke:none"
         d="m 777.23,70.5117 v 45.0003 c 0,35.617 11.95,57.968 35.93,67.027 -17.301,26.949 -25.93,47.973 -25.93,62.973 v 25 c 0,22.258 6.911,39.527 20.782,51.718 13.828,12.18 34.718,18.282 62.648,18.282 53.75,0 80.629,-23.364 80.629,-70 v -42.5 h -35 v 44.527 c 0,11.949 -3.988,21.293 -11.879,27.973 -7.808,6.636 -19.609,10 -35.308,10 -15.622,0 -27.34,-3.364 -35.153,-10 -7.82,-6.68 -11.719,-16.024 -11.719,-27.973 v -27.027 c 0,-11.992 9.141,-31.172 27.5,-57.5 h 137.032 v -30 H 946.289 V 70.5117 c 0,-46.6836 -28.199,-69.999981 -84.527,-69.999981 -56.371,0 -84.532,23.316381 -84.532,69.999981 z m 134.059,-2.0312 v 89.5315 h -64.527 c -23.051,0 -34.532,-14.184 -34.532,-42.5 V 68.4805 c 0,-12 4.141,-21.3321 12.5,-27.9688 8.321,-6.6836 20.661,-10 37.032,-10 16.328,0 28.668,3.3164 37.027,10 8.32,6.6367 12.5,15.9688 12.5,27.9688 z" /><path
         id="path28"
         style="fill:#000000;fill-opacity:1;fill-rule:nonzero;stroke:none"
         d="m 1197.81,8.01172 h -35 V 333.012 h 35 V 195.039 l 87.03,137.973 h 39.07 l -88.6,-140 94.53,-185.00028 h -38.43 L 1214.38,159.57 1197.81,133.012 Z" /><path
         id="path30"
         style="fill:#000000;fill-opacity:1;fill-rule:nonzero;stroke:none"
         d="m 1537.38,8.01172 h -147.5 V 333.012 h 142.5 v -30 h -107.5 v -115 h 87.5 v -30 h -87.5 V 38.0117 h 112.5 z" /><path
         id="path32"
         style="fill:#000000;fill-opacity:1;fill-rule:nonzero;stroke:none"
         d="m 1692.54,8.01172 h -35 V 124.57 l -82.5,208.442 h 37.03 l 62.97,-167.5 62.97,167.5 h 37.03 l -82.5,-209.063 z" /></g></g></svg>